<svg width="18" height="11" viewBox="0 0 18 11" fill="none" xmlns="http://www.w3.org/2000/svg">
<path d="M6.05858 6.95689H7.31565V7.89658H6.05858V10H4.90108V7.89658H0.775139V7.21826L4.83262 0.939119H6.05858V6.95689ZM2.082 6.95689H4.90108V2.51357L4.76417 2.7625L2.082 6.95689ZM8.49805 9.39636C8.49805 9.19722 8.55613 9.03127 8.67229 8.89851C8.79261 8.76575 8.971 8.69937 9.20748 8.69937C9.44396 8.69937 9.62236 8.76575 9.74267 8.89851C9.86714 9.03127 9.92937 9.19722 9.92937 9.39636C9.92937 9.5872 9.86714 9.74693 9.74267 9.87554C9.62236 10.0041 9.44396 10.0685 9.20748 10.0685C8.971 10.0685 8.79261 10.0041 8.67229 9.87554C8.55613 9.74693 8.49805 9.5872 8.49805 9.39636ZM12.2444 5.45711L12.7049 0.939119H17.3473V2.00327H13.6819L13.4081 4.47386C13.852 4.21249 14.3561 4.0818 14.9203 4.0818C15.7459 4.0818 16.4014 4.35562 16.8868 4.90325C17.3722 5.44674 17.6149 6.18315 17.6149 7.11247C17.6149 8.04594 17.3619 8.78234 16.8557 9.32168C16.3537 9.85687 15.6505 10.1245 14.7461 10.1245C13.9454 10.1245 13.2919 9.9025 12.7858 9.45859C12.2796 9.01467 11.9913 8.40065 11.9208 7.61654H13.0098C13.0803 8.13513 13.265 8.52719 13.5637 8.79271C13.8624 9.05408 14.2565 9.18477 14.7461 9.18477C15.2813 9.18477 15.7003 9.00222 16.0031 8.63713C16.3102 8.27204 16.4637 7.76797 16.4637 7.12491C16.4637 6.51919 16.2977 6.03379 15.9658 5.6687C15.6381 5.29946 15.2004 5.11484 14.6527 5.11484C14.1507 5.11484 13.7566 5.22478 13.4703 5.44467L13.1654 5.69359L12.2444 5.45711Z" fill="#2B2B2B"/>
</svg>
