<svg width="59" height="13" viewBox="0 0 59 13" fill="none" xmlns="http://www.w3.org/2000/svg">
<g clip-path="url(#clip0_625_3159)">
<path d="M53.8342 1.49561L54.8865 4.12629H57.5172L55.4126 5.96777L56.2018 8.86152L53.8342 7.02004L51.4666 8.86152L52.2558 5.96777L50.1512 4.12629H52.7819L53.8342 1.49561Z" stroke="#2B2B2B" stroke-width="0.526137" stroke-linecap="round" stroke-linejoin="round"/>
</g>
<g clip-path="url(#clip1_625_3159)">
<path d="M45.1534 1.49561L43.9564 3.9211L41.281 4.30781L43.2172 6.19664L42.7595 8.86152L45.1534 7.60405L47.5473 8.86152L47.0896 6.19664L49.0257 4.31044L46.3503 3.9211L45.1534 1.49561Z" fill="#2B2B2B"/>
</g>
<g clip-path="url(#clip2_625_3159)">
<path d="M36.472 1.49561L35.275 3.9211L32.5996 4.30781L34.5358 6.19664L34.0781 8.86152L36.472 7.60405L38.8659 8.86152L38.4082 6.19664L40.3443 4.31044L37.6689 3.9211L36.472 1.49561Z" fill="#2B2B2B"/>
</g>
<g clip-path="url(#clip3_625_3159)">
<path d="M27.7907 1.49561L26.5937 3.9211L23.9183 4.30781L25.8545 6.19664L25.3968 8.86152L27.7907 7.60405L30.1846 8.86152L29.7269 6.19664L31.6631 4.31044L28.9877 3.9211L27.7907 1.49561Z" fill="#2B2B2B"/>
</g>
<path d="M19.1099 1.49536L17.913 3.92085L15.2375 4.30756L17.1737 6.19639L16.716 8.86128L19.1099 7.60381L21.5038 8.86128L21.0461 6.19639L22.9823 4.31019L20.3069 3.92085L19.1099 1.49536Z" fill="#2B2B2B"/>
<path d="M4.46514 7.62054H5.34429V8.27772H4.46514V9.74878H3.65563V8.27772H0.770097V7.80333L3.60775 3.41193H4.46514V7.62054ZM1.68407 7.62054H3.65563V4.51304L3.55988 4.68713L1.68407 7.62054ZM6.17122 9.32661C6.17122 9.18734 6.21184 9.07128 6.29308 8.97843C6.37722 8.88559 6.50199 8.83916 6.66737 8.83916C6.83276 8.83916 6.95752 8.88559 7.04167 8.97843C7.12871 9.07128 7.17223 9.18734 7.17223 9.32661C7.17223 9.46008 7.12871 9.57179 7.04167 9.66173C6.95752 9.75168 6.83276 9.79665 6.66737 9.79665C6.50199 9.79665 6.37722 9.75168 6.29308 9.66173C6.21184 9.57179 6.17122 9.46008 6.17122 9.32661ZM8.79126 6.57165L9.11333 3.41193H12.3601V4.15616H9.79663L9.60513 5.884C9.91559 5.7012 10.2681 5.6098 10.6627 5.6098C11.2401 5.6098 11.6986 5.8013 12.038 6.1843C12.3775 6.56439 12.5472 7.07941 12.5472 7.72934C12.5472 8.38218 12.3703 8.89719 12.0163 9.27439C11.6652 9.64868 11.1734 9.83582 10.5409 9.83582C9.98087 9.83582 9.52389 9.68059 9.16991 9.37013C8.81593 9.05968 8.61427 8.63026 8.56495 8.08187H9.32659C9.37591 8.44456 9.50503 8.71875 9.71394 8.90445C9.92284 9.08724 10.1985 9.17864 10.5409 9.17864C10.9152 9.17864 11.2082 9.05097 11.42 8.79564C11.6347 8.54031 11.7421 8.18778 11.7421 7.73805C11.7421 7.31443 11.626 6.97496 11.3939 6.71962C11.1647 6.46139 10.8586 6.33228 10.4756 6.33228C10.1245 6.33228 9.84886 6.40917 9.64865 6.56294L9.43539 6.73703L8.79126 6.57165Z" fill="#2B2B2B"/>
<defs>
<clipPath id="clip0_625_3159">
<rect width="8.41819" height="8.41819" fill="white" transform="translate(49.626 0.969482)"/>
</clipPath>
<clipPath id="clip1_625_3159">
<rect width="8.41819" height="8.41819" fill="white" transform="translate(40.9445 0.969482)"/>
</clipPath>
<clipPath id="clip2_625_3159">
<rect width="8.41819" height="8.41819" fill="white" transform="translate(32.2629 0.969482)"/>
</clipPath>
<clipPath id="clip3_625_3159">
<rect width="8.41819" height="8.41819" fill="white" transform="translate(23.5825 0.969482)"/>
</clipPath>
</defs>
</svg>
