<svg width="24" height="26" viewBox="0 0 24 26" fill="none" xmlns="http://www.w3.org/2000/svg">
<path d="M12 1.09082C10.3636 1.09082 9.08523 1.69309 8.16477 2.89764C7.24432 4.10218 6.78409 5.64196 6.78409 7.51696C6.77273 9.8465 7.52273 11.6931 9.03409 13.0567C9.22727 13.2385 9.29545 13.4715 9.23864 13.7556L8.84659 14.5738C8.72159 14.8465 8.53693 15.0596 8.29261 15.213C8.0483 15.3664 7.53409 15.5851 6.75 15.8692C6.71591 15.8806 5.99716 16.1135 4.59375 16.5681C3.19034 17.0226 2.44318 17.2726 2.35227 17.3181C1.39773 17.7158 0.772727 18.1306 0.477273 18.5624C0.159091 19.2783 0 21.0908 0 23.9999H24C24 21.0908 23.8409 19.2783 23.5227 18.5624C23.2273 18.1306 22.6023 17.7158 21.6477 17.3181C21.5568 17.2726 20.8097 17.0226 19.4062 16.5681C18.0028 16.1135 17.2841 15.8806 17.25 15.8692C16.4659 15.5851 15.9517 15.3664 15.7074 15.213C15.4631 15.0596 15.2784 14.8465 15.1534 14.5738L14.7614 13.7556C14.7045 13.4715 14.7727 13.2385 14.9659 13.0567C16.4773 11.6931 17.2273 9.8465 17.2159 7.51696C17.2159 5.64196 16.7557 4.10218 15.8352 2.89764C14.9148 1.69309 13.6364 1.09082 12 1.09082Z" fill="white"/>
</svg>
