<svg width="52" height="52" viewBox="0 0 52 52" fill="none" xmlns="http://www.w3.org/2000/svg">
<path d="M42.25 43.2656C41.6894 43.2656 41.2344 43.7206 41.2344 44.2812C41.2344 44.8419 41.6894 45.2969 42.25 45.2969C42.8106 45.2969 43.2656 44.8419 43.2656 44.2812C43.2656 43.7206 42.8106 43.2656 42.25 43.2656Z" fill="white"/>
<path d="M45.2969 4.81731V3.04688C45.2969 1.36683 43.93 0 42.25 0H9.75C8.06995 0 6.70312 1.36683 6.70312 3.04688V4.81731C0.0785081 17.0519 0.000304688 16.6886 0 17.2645C0 17.2649 0 17.2652 0 17.2656V19.2969C0 21.0573 1.01786 22.6944 2.64062 23.6255V50.9844C2.64062 51.5452 3.09542 52 3.65625 52H48.3438C48.9046 52 49.3594 51.5452 49.3594 50.9844V23.6255C50.9658 22.6953 52 21.0388 52 19.2969V17.2656C52 17.2652 52 17.2649 52 17.2645C51.9997 16.6825 51.8569 16.9326 45.2969 4.81731ZM49.2668 16.25H42.9821L39.5967 6.09375H43.6808L49.2668 16.25ZM35.1406 18.2812H41.2344V19.2969C41.2344 20.9769 39.8675 22.3438 38.1875 22.3438C36.5075 22.3438 35.1406 20.9769 35.1406 19.2969V18.2812ZM34.9853 16.25L33.2927 6.09375H37.4554L40.8408 16.25H34.9853ZM8.73438 3.04688C8.73438 2.48686 9.18998 2.03125 9.75 2.03125H42.25C42.81 2.03125 43.2656 2.48686 43.2656 3.04688V4.0625C42.2985 4.0625 9.70897 4.0625 8.73438 4.0625V3.04688ZM33.1094 18.2812V19.2969C33.1094 20.9769 31.7425 22.3438 30.0625 22.3438C28.3825 22.3438 27.0156 20.9769 27.0156 19.2969V18.2812H33.1094ZM27.0156 16.25V6.09375H31.2334L32.9262 16.25H27.0156ZM19.0739 16.25L20.7667 6.09375H24.9844V16.25H19.0739ZM24.9844 18.2812V19.2969C24.9844 20.9769 23.6175 22.3438 21.9375 22.3438C20.2575 22.3438 18.8906 20.9769 18.8906 19.2969V18.2812H24.9844ZM11.1591 16.25L14.5445 6.09375H18.7073L17.0146 16.25H11.1591ZM16.8594 18.2812V19.2969C16.8594 20.9769 15.4925 22.3438 13.8125 22.3438C12.1325 22.3438 10.7656 20.9769 10.7656 19.2969V18.2812H16.8594ZM8.31919 6.09375H12.4033L9.01794 16.25H2.73325L8.31919 6.09375ZM2.03125 19.2969V18.2812H8.73438V19.2969C8.73438 20.8915 7.1369 22.3438 5.38281 22.3438C4.94061 22.3438 4.48236 22.2478 4.0558 22.0653C2.84487 21.5502 2.03125 20.4376 2.03125 19.2969ZM20.9219 49.9688H10.7656V41.2344H20.9219V49.9688ZM20.9219 39.2031H10.7656V30.4688H20.9219V39.2031ZM47.3281 49.9688H22.9531V29.4531C22.9531 28.8923 22.4983 28.4375 21.9375 28.4375H9.75C9.18917 28.4375 8.73438 28.8923 8.73438 29.4531V49.9688H4.67188V24.3253C4.9073 24.3573 5.14445 24.375 5.38281 24.375C6.71948 24.375 8.07066 23.8455 9.08964 22.922C9.31501 22.7179 9.51793 22.4995 9.70003 22.2707C10.6236 23.5444 12.1225 24.375 13.8125 24.375C15.4719 24.375 16.9477 23.5749 17.875 22.3402C18.8023 23.5749 20.2781 24.375 21.9375 24.375C23.5969 24.375 25.0727 23.5749 26 22.3402C26.9273 23.5749 28.4031 24.375 30.0625 24.375C31.7219 24.375 33.1977 23.5749 34.125 22.3402C35.0523 23.5749 36.5281 24.375 38.1875 24.375C39.8775 24.375 41.3764 23.5444 42.3 22.2707C42.4821 22.4995 42.685 22.7178 42.9104 22.922C43.9293 23.8455 45.2805 24.375 46.6172 24.375C46.855 24.375 47.0922 24.3579 47.3281 24.3257V49.9688ZM49.9688 19.2969C49.9688 20.4697 49.1249 21.5951 47.869 22.0975C47.4583 22.261 47.0373 22.3438 46.6172 22.3438C44.8631 22.3438 43.2656 20.8915 43.2656 19.2969V18.2812H49.9688V19.2969Z" fill="white"/>
<path d="M44.2812 39.2031H43.2656V29.4531C43.2656 28.8923 42.8108 28.4375 42.25 28.4375H30.0625C29.5017 28.4375 29.0469 28.8923 29.0469 29.4531V39.2031H28.0312C27.4704 39.2031 27.0156 39.6579 27.0156 40.2188C27.0156 40.7796 27.4704 41.2344 28.0312 41.2344H44.2812C44.8421 41.2344 45.2969 40.7796 45.2969 40.2188C45.2969 39.6579 44.8421 39.2031 44.2812 39.2031ZM41.2344 39.2031H31.0781V30.4688H41.2344V39.2031Z" fill="white"/>
<path d="M38.1875 43.2656H30.0625C29.5017 43.2656 29.0469 43.7204 29.0469 44.2812C29.0469 44.8421 29.5017 45.2969 30.0625 45.2969H38.1875C38.7483 45.2969 39.2031 44.8421 39.2031 44.2812C39.2031 43.7204 38.7483 43.2656 38.1875 43.2656Z" fill="white"/>
</svg>
