<svg width="40" height="40" viewBox="0 0 40 40" fill="none" xmlns="http://www.w3.org/2000/svg">
<path d="M31.6667 33.3333C31.6667 35.1833 30.1834 36.6666 28.3334 36.6666C27.4493 36.6666 26.6015 36.3154 25.9763 35.6903C25.3512 35.0652 25 34.2173 25 33.3333C25 31.4833 26.4834 29.9999 28.3334 29.9999C29.2174 29.9999 30.0653 30.3511 30.6904 30.9762C31.3155 31.6014 31.6667 32.4492 31.6667 33.3333ZM11.6667 29.9999C9.81669 29.9999 8.33335 31.4833 8.33335 33.3333C8.33335 34.2173 8.68454 35.0652 9.30966 35.6903C9.93478 36.3154 10.7826 36.6666 11.6667 36.6666C13.5167 36.6666 15 35.1833 15 33.3333C15 31.4833 13.5167 29.9999 11.6667 29.9999ZM12 24.3833L11.95 24.5833C11.95 24.8166 12.1334 24.9999 12.3667 24.9999H31.6667V28.3333H11.6667C10.7826 28.3333 9.93478 27.9821 9.30966 27.3569C8.68454 26.7318 8.33335 25.884 8.33335 24.9999C8.33335 24.4166 8.48335 23.8666 8.73335 23.3999L11 19.3166L5.00002 6.66659H1.66669V3.33325H7.11669L8.68335 6.66659H33.3334C34.25 6.66659 35 7.41659 35 8.33325C35 8.61659 34.9167 8.89992 34.8 9.16659L28.8334 19.9499C28.2667 20.9666 27.1667 21.6666 25.9167 21.6666H13.5L12 24.3833ZM14.1667 18.3333H16.6667V14.9999H12.6L14.1667 18.3333ZM18.3334 14.9999V18.3333H23.3334V14.9999H18.3334ZM23.3334 13.3333V9.99992H18.3334V13.3333H23.3334ZM28.5167 14.9999H25V18.3333H26.6667L28.5167 14.9999ZM31.3 9.99992H25V13.3333H29.45L31.3 9.99992ZM10.2334 9.99992L11.8 13.3333H16.6667V9.99992H10.2334Z" fill="white"/>
</svg>
