<svg width="52" height="52" viewBox="0 0 52 52" fill="none" xmlns="http://www.w3.org/2000/svg">
<path d="M26.9936 32.999C26.1751 32.8516 25.3545 32.89 24.5733 33.0928L17.2482 22.088C17.2627 22.0066 17.2617 21.9246 17.2503 21.8437L26.1927 8.21687C26.4287 7.85792 26.3286 7.37553 25.9691 7.13952C25.6107 6.90403 25.1278 7.00414 24.8918 7.36308L16.2315 20.5604L7.65322 7.67378C7.41513 7.31588 6.9317 7.21888 6.57432 7.45749C6.21641 7.69557 6.11993 8.17848 6.35802 8.53639L15.4281 22.1627L8.42453 33.2194C7.7025 33.0778 6.95297 33.0783 6.20915 33.2293C4.7075 33.5348 3.41697 34.414 2.57719 35.703C0.829678 38.3618 1.54912 41.9538 4.17894 43.7086C5.12558 44.3451 6.2133 44.6744 7.3254 44.6744C7.70198 44.6744 8.08115 44.6366 8.45877 44.5598C9.963 44.2553 11.2577 43.3746 12.1042 42.0799C12.1042 42.0794 12.1047 42.0794 12.1047 42.0789C13.8341 39.4267 13.1095 35.8378 10.4895 34.0784C10.3085 33.9565 10.1207 33.8496 9.93033 33.7506L16.3721 23.5803L23.1101 33.7028C22.983 33.778 22.8564 33.8543 22.734 33.9404C20.1514 35.7564 19.5035 39.3609 21.2894 41.9756C21.2899 41.9762 21.2899 41.9772 21.2904 41.9777C22.1665 43.2532 23.4804 44.1065 24.9888 44.3793C25.3285 44.441 25.6688 44.4716 26.0065 44.4716C27.1575 44.4716 28.2805 44.1189 29.2479 43.442C31.83 41.6245 32.4763 38.0179 30.6878 35.4016C29.8143 34.1245 28.5015 33.2723 26.9936 32.999ZM10.8012 41.2287C10.184 42.1717 9.24253 42.8133 8.14962 43.0348C7.06812 43.2537 5.9664 43.0343 5.04466 42.415C3.12131 41.1317 2.59794 38.5045 3.87913 36.5552C4.49172 35.6153 5.42954 34.9757 6.51985 34.7542C6.79425 34.6982 7.0702 34.6707 7.34355 34.6707C8.14858 34.6707 8.93597 34.9093 9.6217 35.3699C11.5393 36.6579 12.0679 39.2856 10.8012 41.2287ZM28.3541 42.1676C27.448 42.8024 26.3525 43.0447 25.2663 42.8476C24.1698 42.6494 23.2138 42.028 22.5742 41.0975C21.2661 39.1819 21.7386 36.5417 23.6282 35.2133C24.5349 34.5768 25.6325 34.3357 26.7161 34.5307C27.8121 34.7288 28.7665 35.3502 29.404 36.2798C30.7142 38.1964 30.2427 40.8381 28.3541 42.1676Z" fill="white"/>
<path d="M49.5362 13.4863C49.9657 13.4863 50.3142 13.1382 50.3142 12.7082C50.3142 12.2782 49.9657 11.9302 49.5362 11.9302H36.828V8.29924H49.5362C49.9657 8.29924 50.3142 7.95119 50.3142 7.52119C50.3142 7.09118 49.9657 6.74313 49.5362 6.74313H36.0499C35.6204 6.74313 35.2719 7.09118 35.2719 7.52119V43.3117C35.2719 43.7412 35.6204 44.0898 36.0499 44.0898H49.5362C49.9657 44.0898 50.3142 43.7412 50.3142 43.3117C50.3142 42.8822 49.9657 42.5337 49.5362 42.5337H36.828V38.384H49.5362C49.9657 38.384 50.3142 38.0355 50.3142 37.606C50.3142 37.1765 49.9657 36.8279 49.5362 36.8279H36.828V32.1596H49.5362C49.9657 32.1596 50.3142 31.811 50.3142 31.3815C50.3142 30.9521 49.9657 30.6035 49.5362 30.6035H36.828V25.9352H49.5362C49.9657 25.9352 50.3142 25.5866 50.3142 25.1571C50.3142 24.7271 49.9657 24.379 49.5362 24.379H36.828V19.7107H49.5362C49.9657 19.7107 50.3142 19.3627 50.3142 18.9327C50.3142 18.5027 49.9657 18.1546 49.5362 18.1546H36.828V13.4863H49.5362Z" fill="white"/>
</svg>
