<svg width="52" height="44" viewBox="0 0 52 44" fill="none" xmlns="http://www.w3.org/2000/svg">
<g clip-path="url(#clip0_625_3132)">
<path d="M41.3174 8.18945C43.5488 8.70921 45.7791 7.32139 46.2989 5.08999C46.8183 2.8586 45.4305 0.628461 43.1991 0.109064C40.9677 -0.410702 38.7374 0.977308 38.218 3.20835C37.6982 5.43974 39.0864 7.67005 41.3174 8.18945Z" fill="white"/>
<path d="M38.6023 10.6459C39.3804 10.6459 40.0788 11.1385 40.3398 11.8722C40.6792 12.8244 40.182 13.8799 39.2306 14.2245C39.188 14.2415 39.1428 14.2607 39.0807 14.2889C38.9545 14.3461 38.7511 14.4453 38.499 14.5929C38.0347 14.8644 37.3325 15.3432 36.6233 16.0833C35.4799 17.2916 34.695 18.7236 34.2534 20.4097C34.284 21.1749 34.3501 21.9862 34.4542 22.8801C34.6551 23.9138 35.033 24.624 35.5112 25.1104C35.5157 25.1311 35.5223 25.163 35.5314 25.2112C35.5837 25.4865 35.6924 26.1847 35.6924 27.1848C35.6781 29.7845 35.0074 34.3286 30.671 39.2246C29.825 40.1764 29.9108 41.6333 30.8625 42.4793C31.3017 42.8696 31.8486 43.0616 32.3933 43.0616C33.029 43.0617 33.6617 42.8003 34.117 42.2878C38.1998 37.708 39.697 33.1013 40.1418 29.6735C40.6483 30.853 41.0399 32.4376 41.0452 34.5983C41.0452 36.1449 40.8376 37.9872 40.2993 40.1669C39.9939 41.4028 40.7482 42.6523 41.9844 42.9578C42.1701 43.0036 42.3561 43.0256 42.5392 43.0256C43.5745 43.0256 44.5158 42.3228 44.7754 41.2726C45.3922 38.7742 45.6557 36.559 45.6557 34.5983C45.6659 30.2596 44.3303 27.1755 42.8976 25.2505C42.2426 24.3644 41.5835 23.7209 41.0385 23.27C40.7067 20.6437 41.2641 17.6679 41.7493 15.2676C41.9296 15.4014 42.1187 15.5301 42.3181 15.651C43.0863 16.1163 44.0276 16.4723 45.0916 16.4723C45.1 16.4723 45.1084 16.4723 45.1169 16.4723C46.2897 16.4723 47.5284 16.0015 48.6347 15.068C49.7585 14.1269 50.8053 12.7415 51.837 10.7707C52.2142 10.0484 51.9344 9.15701 51.2122 8.78015C50.4899 8.40286 49.5985 8.68272 49.2213 9.40499C48.3132 11.1479 47.4502 12.2171 46.7447 12.8022C46.0296 13.3883 45.5287 13.5149 45.0916 13.5217C44.6957 13.5217 44.2844 13.3905 43.8446 13.1259C43.1886 12.7354 42.5392 12.0427 42.0937 11.4459C42.0616 11.4034 42.0327 11.3629 42.0026 11.3217C41.7168 10.4125 41.1277 9.68784 40.2868 9.47821C38.8537 9.1209 36.834 9.79806 35.783 11.9598C36.8131 11.2311 37.6521 10.8772 37.9695 10.7584C38.1838 10.682 38.3917 10.6459 38.6023 10.6459Z" fill="white"/>
<path d="M4.00937 33.7301C3.99425 33.7625 3.97769 33.8011 3.96148 33.838C3.62289 34.3478 3.35743 35.0198 3.18454 35.915C3.1604 36.0458 2.08434 42.9143 3.7749 42.9143C5.46529 42.9143 5.92958 37.7185 6.87292 37.0533C7.00618 37.0651 10.7582 39.6924 12.9 39.3621C13.3531 39.2919 13.9505 39.0324 14.4791 38.7402L16.1816 42.5099C16.3341 42.848 16.668 43.0526 17.0217 43.0526C17.1165 43.0527 17.2127 43.038 17.3074 43.0072C17.7543 42.8619 18.0203 42.4031 17.9247 41.9429L16.6292 35.7014C16.6001 35.561 16.538 35.4369 16.456 35.3303C16.4584 35.3168 16.4611 35.3018 16.4634 35.2887C16.0053 34.9478 15.6109 34.6106 15.2698 34.2899C14.7078 33.9289 14.0889 33.4382 13.4566 32.7737C9.75284 33.928 8.77968 30.8927 5.54776 32.6205C4.22046 32.2306 2.63813 31.3921 1.43904 29.6027C1.19699 29.2428 0.70894 29.1486 0.350356 29.3909C-0.0100168 29.6326 -0.105288 30.1201 0.138035 30.4801C1.27841 32.1649 2.68711 33.152 4.00937 33.7301Z" fill="white"/>
<path d="M17.3287 34.4485C17.7319 33.8685 18.4771 32.9341 18.8441 32.8214C19.6422 32.5748 20.8889 32.8776 21.2973 32.2485C21.583 31.8088 21.6532 31.6401 21.566 30.8779C21.4789 30.1248 19.7741 29.9571 19.1546 29.8208C18.276 29.6272 17.6428 28.7414 17.5935 28.7085C17.5531 28.6811 16.9167 27.8738 17.7991 26.883C18.1082 26.5373 17.2516 26.4061 16.5727 26.8506C15.7648 27.3796 15.7032 28.0202 15.8613 28.7766C14.6198 29.39 13.964 30.9449 13.7937 32.0522C15.2577 33.6722 16.6351 34.2482 17.3287 34.4485ZM17.6821 29.8802C18.0098 29.8341 18.3131 30.0628 18.3589 30.3904C18.405 30.7185 18.1766 31.0215 17.8485 31.0674C17.5211 31.1131 17.2178 30.8851 17.1721 30.557C17.1259 30.2292 17.3543 29.9263 17.6821 29.8802Z" fill="white"/>
<path d="M33.8281 24.214C34.0058 24.1941 34.1097 24.1885 34.11 24.1878C34.3132 24.1762 34.469 24.002 34.4574 23.7985C34.4458 23.5951 34.2716 23.4396 34.068 23.4512C34.0631 23.4517 33.9772 23.4566 33.8329 23.4713C33.828 23.6306 33.8236 23.7903 33.823 23.9531C33.823 24.0401 33.8267 24.1268 33.8281 24.214Z" fill="white"/>
<path d="M17.2541 35.158C17.2508 35.1693 17.25 35.1808 17.2479 35.1922C17.2127 35.3769 17.321 35.5615 17.5056 35.6152C19.3265 36.145 20.883 36.38 22.22 36.38C22.2232 36.38 22.2269 36.38 22.2301 36.38C24.2875 36.38 25.8293 35.8124 26.9561 34.9197C28.6512 33.5772 29.386 31.5651 29.7671 29.7778C29.9575 28.8826 30.0589 28.037 30.1402 27.3502C30.2182 26.6686 30.2909 26.1226 30.371 25.9252C30.3958 25.8555 30.4288 25.7886 30.4659 25.7232C30.3054 25.4858 30.1988 25.2088 30.1632 24.9078C29.9634 25.1228 29.7963 25.3717 29.6813 25.6637C29.5018 26.1598 29.4572 26.962 29.3182 27.9897C29.1195 29.5177 28.7512 31.4583 27.7392 32.9792C26.7216 34.4952 25.1145 35.6324 22.22 35.6421C20.9819 35.6425 19.508 35.4251 17.7611 34.9207C17.7444 34.9159 17.7284 34.9119 17.7116 34.907C17.5157 34.85 17.3111 34.9624 17.2541 35.158Z" fill="white"/>
<path d="M30.5181 24.7454C30.5489 25.5401 31.2032 26.1632 31.9917 26.1632C32.011 26.1632 32.0304 26.1628 32.0499 26.1621C32.8639 26.1305 33.4983 25.4449 33.4667 24.6306C33.4577 24.3999 33.4535 24.1738 33.4535 23.9518C33.4663 19.7626 34.9309 17.3329 36.3543 15.8284C37.0697 15.0819 37.7857 14.5815 38.3103 14.2747C38.5725 14.1212 38.7863 14.0162 38.9255 13.953C38.9951 13.9214 39.0462 13.9 39.0756 13.8883C39.0903 13.8823 39.0994 13.8789 39.1027 13.8778L39.1026 13.8775C39.8651 13.6015 40.2622 12.7606 39.9897 11.996C39.7165 11.2283 38.8724 10.8276 38.1051 11.1007H38.1048C37.9671 11.1527 36.1086 11.8259 34.2238 13.7867C32.3367 15.737 30.4902 19.0378 30.503 23.9518C30.503 24.2107 30.5076 24.4751 30.5181 24.7454Z" fill="white"/>
</g>
<defs>
<clipPath id="clip0_625_3132">
<rect width="52" height="43.0616" fill="white"/>
</clipPath>
</defs>
</svg>
